<?xml version="1.0" encoding="UTF-8"?>
<svg version="1.1" xmlns="http://www.w3.org/2000/svg" width="2048" height="2048">
<path d="M0 0 C675.84 0 1351.68 0 2048 0 C2048 675.84 2048 1351.68 2048 2048 C1372.16 2048 696.32 2048 0 2048 C0 1372.16 0 696.32 0 0 Z " fill="#F3F3F5" transform="translate(0,0)"/>
<path d="M0 0 C14.19 0 28.38 0 43 0 C42.95035095 3.06921249 42.9007019 6.13842499 42.84954834 9.30064392 C42.40640459 37.50451024 42.1036994 65.70629854 41.95235305 93.91309243 C41.93235567 97.6164658 41.91113594 101.31983123 41.88916016 105.02319336 C41.88262904 106.12901314 41.88262904 106.12901314 41.87596598 107.25717271 C41.80272631 119.16519707 41.63068473 131.06981947 41.42152712 142.97614365 C41.20881908 155.21105288 41.10367327 167.44355161 41.09648919 179.68032271 C41.08941993 186.54818676 41.03345607 193.40828544 40.85436249 200.27400017 C38.569552 227.32810866 38.569552 227.32810866 46.75536537 251.93095398 C52.89772161 258.11612917 60.55067618 261.28028537 68.74136734 263.89679623 C73.07538492 265.36406948 76.6429237 267.53569292 80.41796875 270.0703125 C81.55994701 270.76390171 82.70589668 271.45099946 83.85595703 272.13110352 C86.21810959 273.54482914 88.57980129 274.95930265 90.94091797 276.37475586 C95.72649809 279.24332882 100.51331414 282.10983612 105.30029297 284.97607422 C118.62813275 292.95714908 131.9384374 300.96577376 145.20068359 309.05541992 C150.14379266 312.06848923 155.08905993 315.0720063 160.1015625 317.96875 C160.82005371 318.38656738 161.53854492 318.80438477 162.27880859 319.23486328 C164.08168559 320.27764698 165.892042 321.30747181 167.703125 322.3359375 C168.46109375 322.88507813 169.2190625 323.43421875 170 324 C170 327.66952451 168.95100867 329.22797985 167.1484375 332.41015625 C166.54386719 333.48330078 165.93929688 334.55644531 165.31640625 335.66210938 C164.67574219 336.78423828 164.03507812 337.90636719 163.375 339.0625 C162.75753906 340.15755859 162.14007812 341.25261719 161.50390625 342.38085938 C157.76896877 348.98186994 153.93950911 355.51907831 150 362 C145.67839046 361.40851704 142.64471917 359.85241937 138.90625 357.640625 C138.32719406 357.30034271 137.74813812 356.96006042 137.15153503 356.60946655 C135.26328883 355.49690587 133.38158797 354.37377854 131.5 353.25 C130.17836878 352.46755179 128.85650768 351.68549176 127.53442383 350.90380859 C119.37938566 346.07020875 111.29205347 341.13410917 103.25708008 336.10327148 C95.14464393 331.04167936 86.91801788 326.17852359 78.6875 321.3125 C61.6034335 311.20905934 61.6034335 311.20905934 54.4375 306.6875 C53.86427002 306.32785156 53.29104004 305.96820312 52.70043945 305.59765625 C49.86667203 303.81676813 47.04006056 302.02567425 44.22216797 300.21972656 C41.11623827 298.23473761 37.99655911 296.27279733 34.875 294.3125 C33.88943115 293.67465576 32.9038623 293.03681152 31.88842773 292.37963867 C30.48572632 291.50529175 30.48572632 291.50529175 29.0546875 290.61328125 C28.22437012 290.08516846 27.39405273 289.55705566 26.53857422 289.01293945 C23.20182205 287.6815118 21.43642906 288.02340327 18 289 C15.12482662 290.38446518 15.12482662 290.38446518 12.2734375 292.21875 C11.17402832 292.89478271 10.07461914 293.57081543 8.94189453 294.26733398 C7.75289308 295.0114975 6.56392929 295.7557212 5.375 296.5 C4.12547763 297.27195225 2.87530233 298.04284851 1.62451172 298.81274414 C-0.97100899 300.41155468 -3.5636702 302.01485436 -6.15429688 303.62158203 C-11.46841939 306.91347649 -16.81208964 310.15639253 -22.15789795 313.39648438 C-23.89053962 314.4469211 -25.62235012 315.49871692 -27.35400391 316.55078125 C-36.50603339 322.10853714 -45.68554766 327.61991489 -54.87179565 333.12088013 C-65.59377614 339.54200569 -76.28447264 346.01339463 -86.95507812 352.51953125 C-89.96611866 354.35296009 -92.98164559 356.17864493 -96 358 C-96.73492676 358.44891602 -97.46985352 358.89783203 -98.22705078 359.36035156 C-102.65071358 362 -102.65071358 362 -106 362 C-108.04564528 358.46255395 -110.09027627 354.92452372 -112.1340332 351.38598633 C-112.82712481 350.18628732 -113.520477 348.98673882 -114.21411133 347.78735352 C-114.71624146 346.91904907 -114.71624146 346.91904907 -115.22851562 346.03320312 C-115.56086212 345.45855316 -115.89320862 344.8839032 -116.23562622 344.2918396 C-117.21950967 342.58541344 -118.19646656 340.87499969 -119.17333984 339.16455078 C-120.31369441 337.18897261 -121.47707591 335.22629946 -122.67431641 333.28466797 C-123.1491748 332.49850098 -123.6240332 331.71233398 -124.11328125 330.90234375 C-124.53005127 330.23581787 -124.94682129 329.56929199 -125.3762207 328.88256836 C-126 327 -126 327 -125.30541992 324.88208008 C-123.22363728 321.88068446 -120.1335941 320.47427688 -117 318.75 C-115.4462834 317.8661462 -113.89431215 316.97921984 -112.34375 316.08984375 C-111.49039062 315.60112793 -110.63703125 315.11241211 -109.7578125 314.60888672 C-104.61269038 311.60726183 -99.56295882 308.45001796 -94.5 305.3125 C-81.73587921 297.42479128 -68.88201203 289.69322394 -56 282 C-46.85674648 276.5358277 -37.73637824 271.03426937 -28.62759399 265.51287842 C-27.39750617 264.76740821 -26.16718825 264.02231753 -24.93661499 263.27764893 C-17.92697773 259.03487558 -10.96660029 254.73718127 -4.11816406 250.23681641 C-2 249 -2 249 0 249 C0 166.83 0 84.66 0 0 Z " fill="#191817" transform="translate(407,843)"/>
<path d="M0 0 C33 0 33 0 41.4375 8.1875 C44.4296875 13.1953125 44.4296875 13.1953125 45.74121094 15.69238281 C47.52899752 18.96976039 49.70921104 21.66330702 52.0625 24.5625 C53.7094197 26.70751249 55.35546746 28.85315995 57 31 C57.47195801 31.61601074 57.94391602 32.23202148 58.43017578 32.86669922 C65.02999446 41.48378074 71.61195549 50.11438589 78.1875 58.75 C84.10254739 66.51751618 90.03782737 74.26860634 96 82 C102.01807175 89.81258738 108.02200112 97.63572931 114.00708008 105.47363281 C118.98890116 111.99476718 123.99639348 118.49531152 129 125 C129.495 63.125 129.495 63.125 130 0 C142.87 0 155.74 0 169 0 C169 65.34 169 130.68 169 198 C158.11 198 147.22 198 136 198 C132.7 193.71 129.4 189.42 126 185 C123.45508561 181.73577315 123.45508561 181.73577315 120.90625 178.47460938 C115.35378985 171.37753102 109.88992427 164.22126877 104.5 157 C98.02925079 148.33307216 91.43027687 139.77493477 84.76464844 131.25732422 C81.68940648 127.32349922 78.62674862 123.37988987 75.5625 119.4375 C74.45969083 118.01948815 73.35682813 116.60151793 72.25390625 115.18359375 C71.7218457 114.49910156 71.18978516 113.81460937 70.64160156 113.109375 C69.50974568 111.65499743 68.37617789 110.20195106 67.24121094 108.75 C63.47102129 103.92118567 59.7761052 99.04420898 56.125 94.125 C51.80785554 88.33222911 47.37714233 82.6799889 42.7421875 77.13671875 C41 75 41 75 39 72 C38.67 113.58 38.34 155.16 38 198 C25.46 198 12.92 198 0 198 C0 132.66 0 67.32 0 0 Z " fill="#1D1C1C" transform="translate(679,921)"/>
<path d="M0 0 C45.54 0 91.08 0 138 0 C138 11.22 138 22.44 138 34 C105.66 34 73.32 34 40 34 C40 49.18 40 64.36 40 80 C68.38 80 96.76 80 126 80 C126 90.89 126 101.78 126 113 C97.62 113 69.24 113 40 113 C40 129.5 40 146 40 163 C73.66 163 107.32 163 142 163 C142 174.55 142 186.1 142 198 C95.14 198 48.28 198 0 198 C0 132.66 0 67.32 0 0 Z " fill="#222121" transform="translate(881,921)"/>
<path d="M0 0 C12.87 0 25.74 0 39 0 C39.01458252 3.7237793 39.02916504 7.44755859 39.04418945 11.28417969 C39.09461827 23.6135987 39.16107992 35.94288809 39.23571491 48.27218246 C39.28055935 55.74442885 39.31999972 63.21662878 39.34643555 70.68896484 C39.36950808 77.20667157 39.40300811 83.72422988 39.44870156 90.24181867 C39.47250996 93.68848399 39.49131934 97.13500347 39.49761391 100.58174896 C39.50486063 104.44235709 39.53540225 108.30260192 39.56762695 112.16308594 C39.56619186 113.28878494 39.56475677 114.41448395 39.5632782 115.57429504 C39.7193452 128.87139201 43.2176624 141.61922963 51.3125 152.375 C60.24356384 161.09836468 69.46883835 164.50367483 81.83618164 164.42407227 C91.33100052 164.09398199 101.78130085 161.4872891 109 155 C119.856963 142.66863462 122.28829865 127.3708331 122.31884766 111.48193359 C122.32889328 110.27103058 122.3389389 109.06012756 122.34928894 107.81253052 C122.37470929 104.52396313 122.39166809 101.23548856 122.40471697 97.94685316 C122.42045092 94.49818092 122.44720783 91.04959371 122.4727478 87.60098267 C122.51935527 81.08480997 122.55618604 74.56862094 122.58942068 68.05236781 C122.62777027 60.62779871 122.67714636 53.20331539 122.72740483 45.77881885 C122.83045619 30.51926857 122.91834772 15.25968206 123 0 C135.87 0 148.74 0 162 0 C162.02262796 16.22111202 162.04102624 32.44221044 162.05181217 48.66333389 C162.05695477 56.19613462 162.0639584 63.7289248 162.07543945 71.26171875 C162.08544879 77.83207448 162.09186822 84.40242257 162.09408849 90.97278571 C162.09538504 94.44738446 162.09840335 97.92196134 162.10573006 101.39655304 C162.11386846 105.28813569 162.11398714 109.17969751 162.11352539 113.07128906 C162.11712067 114.20633881 162.12071594 115.34138855 162.12442017 116.51083374 C162.09502447 139.53444931 156.5681784 162.95503949 140 180 C122.53683494 197.01250273 99.27748435 201.43681673 75.67871094 201.3659668 C57.66120477 200.99588545 39.62007849 195.23027457 26 183 C25.33871094 182.40703125 24.67742187 181.8140625 23.99609375 181.203125 C8.53932076 166.53825499 0.44161703 146.40494896 -0.34460449 125.29827881 C-0.49653109 118.03850228 -0.46467692 110.78070975 -0.40557575 103.52026892 C-0.38022079 99.86886013 -0.37819371 96.21743174 -0.37347412 92.56594849 C-0.36114282 85.68155927 -0.32845783 78.79743036 -0.28807616 71.91315472 C-0.24304782 64.06286322 -0.22129412 56.21255794 -0.20129442 48.36216903 C-0.15971373 32.2412705 -0.08648817 16.12072967 0 0 Z " fill="#222222" transform="translate(1229,921)"/>
<path d="M0 0 C14.17335811 -2.69609605 31.29055459 -5.87534727 45 0 C57.35809153 8.97618309 64.37122343 25.39751504 71.16845703 38.63964844 C74.67854298 45.42360316 78.8534844 51.55770614 83.3125 57.75 C84.45786595 59.40908954 85.60030349 61.07020918 86.73828125 62.734375 C87.48464844 63.81203125 88.23101563 64.8896875 89 66 C92.78377473 61.47224401 96.02860216 56.63120291 99.3125 51.73828125 C99.92206543 50.83361618 100.53163086 49.92895111 101.15966797 48.99687195 C103.10847228 46.10343992 105.05423031 43.20797336 107 40.3125 C108.27715456 38.41588821 109.55449662 36.51940267 110.83203125 34.62304688 C111.45817322 33.69057129 112.08431519 32.7580957 112.72943115 31.79736328 C113.99326931 29.92445581 115.26629174 28.05771327 116.54840088 26.19726562 C119.57560513 21.77688991 122.38274339 17.39985839 124.83105469 12.63085938 C130.94880371 1.14562396 130.94880371 1.14562396 136.35180664 -0.88302612 C142.98981614 -2.19270633 149.5532882 -1.64960692 156.25 -1.125 C158.26656756 -1.03456079 160.28352711 -0.95245708 162.30078125 -0.87890625 C167.21031425 -0.68189243 172.100785 -0.37250335 177 0 C175.19682099 3.71946334 173.00331918 7.08446222 170.6875 10.5 C166.69098847 16.44193056 162.76390977 22.42465179 158.875 28.4375 C153.36028876 36.95321339 147.74564656 45.39903812 142.10546875 53.83203125 C136.693888 61.93376197 131.35446362 70.08072492 126.04736328 78.2512207 C125.47228027 79.13640381 124.89719727 80.02158691 124.3046875 80.93359375 C123.75780273 81.7829248 123.21091797 82.63225586 122.64746094 83.50732422 C121.53565005 85.18953956 120.3864713 86.84756372 119.20410156 88.48095703 C118.64432617 89.26196777 118.08455078 90.04297852 117.5078125 90.84765625 C117.00137207 91.52965088 116.49493164 92.21164551 115.97314453 92.91430664 C114.5996384 95.85807555 114.8976276 96.92400796 116 100 C117.65357143 102.97166163 119.52725314 105.77915759 121.421875 108.6015625 C122.26790535 109.88191124 122.26790535 109.88191124 123.13102722 111.18812561 C124.99611414 114.0057502 126.872828 116.81541526 128.75 119.625 C130.05073611 121.58404311 131.35094055 123.54343933 132.65063477 125.50317383 C144.8805379 143.91796736 157.2372149 162.24902848 169.63945007 180.54811096 C170.60696172 181.97639193 171.57289951 183.4057406 172.53707886 184.83627319 C173.58497743 186.38616277 174.6403076 187.93103789 175.70046997 189.4725647 C176.25121185 190.2805954 176.80195374 191.0886261 177.36938477 191.92114258 C177.87292984 192.65440262 178.37647491 193.38766266 178.89527893 194.1431427 C180 196 180 196 180 198 C143.56044114 203.04602026 143.56044114 203.04602026 132.87402344 196.74682617 C124.48509815 189.89307862 119.90517559 179.13448679 115.31201172 169.57714844 C112.05521976 162.92450693 107.87227333 156.89940811 103.70074463 150.79647827 C101.71781679 147.87842133 99.79397146 144.92267156 97.87109375 141.96484375 C97.19804199 140.93472168 96.52499023 139.90459961 95.83154297 138.84326172 C94.2154306 136.33443145 92.64836744 133.80339974 91.09765625 131.25390625 C89.37519319 127.97532841 89.37519319 127.97532841 87 127 C86.77828125 127.6496875 86.5565625 128.299375 86.328125 128.96875 C84.52712331 133.07927151 82.16665903 136.72625215 79.75 140.5 C79.22422363 141.32661133 78.69844727 142.15322266 78.15673828 143.00488281 C71.91770299 152.76698731 65.45974032 162.38324373 59 172 C57.18525609 174.70683822 55.37331213 177.41553062 53.5625 180.125 C52.4594673 181.77066953 51.3550461 183.41614544 50.2019043 185.02709961 C48.86988382 187.07113685 48.86988382 187.07113685 47.94848633 189.84985352 C46.34722701 193.50253363 45.12834012 195.48316389 42 198 C34.77518498 199.89890462 26.94313698 199.02522164 19.5625 198.6875 C17.47473751 198.63229046 15.38683569 198.58210601 13.29882812 198.53710938 C8.19577065 198.416201 3.09941226 198.22661942 -2 198 C-0.78907654 194.76923944 0.53411694 191.95623722 2.46875 189.1015625 C3.19336426 188.02430908 3.19336426 188.02430908 3.93261719 186.92529297 C4.44985352 186.16619629 4.96708984 185.40709961 5.5 184.625 C6.59901376 182.99482903 7.69797137 181.36462021 8.796875 179.734375 C9.34279297 178.92806641 9.88871094 178.12175781 10.45117188 177.29101562 C12.56617135 174.16252334 14.6589801 171.01954483 16.75 167.875 C17.55713721 166.66395955 18.36443708 165.45302749 19.171875 164.2421875 C19.60951172 163.58573242 20.04714844 162.92927734 20.49804688 162.25292969 C22.27473958 159.58789062 24.05143229 156.92285156 25.828125 154.2578125 C26.84966675 152.72543945 26.84966675 152.72543945 27.8918457 151.16210938 C29.29908484 149.05133216 30.70647455 146.94065532 32.11401367 144.83007812 C36.42356821 138.36773958 36.42356821 138.36773958 40.72265625 131.8984375 C41.11799561 131.30329346 41.51333496 130.70814941 41.9206543 130.0949707 C42.67479635 128.9590009 43.4275905 127.82213498 44.17895508 126.68432617 C46.71811687 122.85924155 49.33291836 119.09357078 51.9765625 115.33984375 C52.67128662 114.34484863 53.36601074 113.34985352 54.08178711 112.32470703 C55.46528949 110.3456169 56.85906024 108.373658 58.26391602 106.40966797 C58.89225342 105.50748535 59.52059082 104.60530273 60.16796875 103.67578125 C60.73797607 102.87052002 61.3079834 102.06525879 61.89526367 101.2355957 C63.19574977 99.10031313 63.19574977 99.10031313 62.79345703 96.91357422 C61.44908459 93.67136155 59.56219783 90.76595085 57.6875 87.8125 C57.31560547 87.20986328 56.94371094 86.60722656 56.56054688 85.98632812 C53.3485403 80.87654832 49.87312126 75.96513238 46.37890625 71.046875 C40.16090026 62.29082252 34.18199464 53.38889635 28.25 44.4375 C26.68365408 42.07831611 25.11674018 39.71951011 23.54980469 37.36071777 C22.51237863 35.79883498 21.4752654 34.23674434 20.43847656 32.67443848 C17.27244208 27.90578991 14.0894131 23.14907249 10.890625 18.40234375 C10.13239786 17.27488089 9.37425648 16.14736036 8.61621094 15.01977539 C7.23754975 12.97102889 5.85555108 10.92452309 4.46972656 8.88061523 C3.8712793 7.98930908 3.27283203 7.09800293 2.65625 6.1796875 C2.13869141 5.41382324 1.62113281 4.64795898 1.08789062 3.85888672 C0 2 0 2 0 0 Z " fill="#212020" transform="translate(1035,921)"/>
<path d="M0 0 C0.67562988 0.21962402 1.35125977 0.43924805 2.04736328 0.66552734 C23.91305921 7.91305921 23.91305921 7.91305921 31 15 C30.42568548 21.67307243 27.54579816 27.66520512 25.0625 33.8125 C24.37897461 35.54790039 24.37897461 35.54790039 23.68164062 37.31835938 C23.24142578 38.41599609 22.80121094 39.51363281 22.34765625 40.64453125 C21.74449585 42.15043823 21.74449585 42.15043823 21.12915039 43.68676758 C20 46 20 46 18 47 C16.06738281 46.2590332 16.06738281 46.2590332 13.703125 45.05078125 C12.83292725 44.61628662 11.96272949 44.18179199 11.06616211 43.73413086 C9.67216187 43.03042358 9.67216187 43.03042358 8.25 42.3125 C-0.05933696 38.22341848 -7.94798891 35.07089175 -17 33 C-17.60690674 32.82637939 -18.21381348 32.65275879 -18.83911133 32.47387695 C-23.34519622 31.48570491 -28.03128076 31.77221871 -32.625 31.75 C-34.18927734 31.7190625 -34.18927734 31.7190625 -35.78515625 31.6875 C-46.25341546 31.63522405 -55.33362573 33.46961463 -63 41 C-66.63210314 45.26838398 -68.83888761 49.29058736 -68.4140625 54.9921875 C-67.16664425 61.0409892 -64.13252315 65.80661041 -59.22143555 69.53930664 C-49.08865594 76.20206303 -36.55342702 78.27602858 -24.92871094 80.97680664 C-3.56872317 85.9738887 19.62745228 92.27202504 32.4296875 111.41796875 C40.58817946 124.83280254 41.70416788 139.09525976 38.875 154.3125 C35.62768555 167.55733347 27.47001295 178.82503035 16.265625 186.6328125 C6.38784008 192.59354478 -3.82494106 195.62129387 -15 198 C-15.78084961 198.17877686 -16.56169922 198.35755371 -17.36621094 198.54174805 C-23.25632709 199.83056976 -28.8508091 200.35122777 -34.875 200.3125 C-35.7726709 200.30903564 -36.6703418 200.30557129 -37.59521484 200.30200195 C-62.41360477 199.90967631 -88.47647167 193.10247364 -108.5 177.875 C-111 175 -111 175 -110.80615234 172.1965332 C-109.39330078 166.59433287 -106.9548036 161.45942737 -104.625 156.1875 C-104.13 155.03056641 -103.635 153.87363281 -103.125 152.68164062 C-102.64289063 151.58400391 -102.16078125 150.48636719 -101.6640625 149.35546875 C-101.22529785 148.35153076 -100.7865332 147.34759277 -100.33447266 146.31323242 C-99 144 -99 144 -96 143 C-93.390625 144.625 -93.390625 144.625 -90.25 147 C-70.14057522 161.50868665 -46.70905502 166.75699818 -22.15625 163.48828125 C-13.92604392 161.69052159 -6.69623366 158.22497487 -2 151 C0.25416544 146.82979394 0.6844261 142.65765291 0 138 C-2.64122757 131.33951307 -6.85597384 128.45005871 -13 125 C-16.76217812 123.37848258 -20.59414759 122.10416705 -24.5 120.875 C-25.55590332 120.53227051 -26.61180664 120.18954102 -27.69970703 119.83642578 C-34.37606698 117.70968618 -41.05961864 115.93250235 -47.89941406 114.43041992 C-67.59417896 110.03179514 -88.92461898 102.29781895 -100.79296875 84.95703125 C-108.65877671 72.20373097 -109.5821964 58.6139325 -106.9375 43.9375 C-103.35949117 29.07628194 -94.38903866 16.92023682 -81.6484375 8.58984375 C-57.77618418 -5.7405502 -26.47868949 -8.8440561 0 0 Z " fill="#262526" transform="translate(1764,922)"/>
<path d="M0 0 C1.40450912 0.44150251 2.80947504 0.8815539 4.21484375 1.3203125 C11.60630603 3.7058069 18.61665564 6.58348088 25.5 10.1875 C26.14138916 10.52040039 26.78277832 10.85330078 27.44360352 11.19628906 C31.87375516 13.62126548 31.87375516 13.62126548 33 17 C32.22729492 19.55615234 32.22729492 19.55615234 30.98046875 22.5859375 C30.53509766 23.68164062 30.08972656 24.77734375 29.63085938 25.90625 C29.15455078 27.0509375 28.67824219 28.195625 28.1875 29.375 C27.72279297 30.51195312 27.25808594 31.64890625 26.77929688 32.8203125 C25.9107723 34.94364949 25.03836805 37.06540653 24.16088867 39.18505859 C23.08940034 41.78322063 22.03865822 44.38856767 21 47 C18.05312573 46.3570381 15.54423014 45.40277058 12.83984375 44.07421875 C12.0516626 43.69144775 11.26348145 43.30867676 10.45141602 42.91430664 C9.62182373 42.50946045 8.79223145 42.10461426 7.9375 41.6875 C-10.74554698 32.73957261 -30.71447818 26.54186717 -51.15234375 33.734375 C-57.50920838 36.55964817 -63.11838288 40.51636147 -66 47 C-67.01305084 53.21160121 -66.8346765 58.48903948 -63.5 63.9375 C-54.77589033 75.1196729 -39.52897788 77.52918193 -26.375 80.375 C-4.59456383 85.13069368 19.49575548 91.33108401 32.8359375 110.66015625 C40.55978678 123.75302271 42.6565781 140.41294513 39.12109375 155.234375 C35.00906937 169.57985501 26.69674103 181.24476713 13.71875 188.59375 C-12.78437758 202.30226426 -43.83235804 203.63409589 -72.28125 195.33447266 C-76.97782439 193.83169648 -81.50296165 192.01751919 -86 190 C-86.93561768 189.58379395 -86.93561768 189.58379395 -87.89013672 189.15917969 C-95.63684696 185.6516136 -102.56382376 181.60185709 -109 176 C-108.46071349 171.13032328 -107.44008456 167.12019537 -105.49609375 162.62890625 C-105.00302734 161.47841797 -104.50996094 160.32792969 -104.00195312 159.14257812 C-103.22754883 157.37043945 -103.22754883 157.37043945 -102.4375 155.5625 C-101.91736328 154.35400391 -101.39722656 153.14550781 -100.86132812 151.90039062 C-99.58170626 148.93025915 -98.29441585 145.96370674 -97 143 C-92.93875605 144.56115983 -89.48808125 146.47105177 -85.8125 148.8125 C-69.08962495 159.27433819 -53.56914754 164.081022 -33.8125 164.3125 C-32.44097778 164.33908691 -32.44097778 164.33908691 -31.04174805 164.36621094 C-21.621708 164.35602619 -12.33342334 162.21145835 -5 156 C-0.91196926 151.72298487 0.33665103 147.75435871 0.5625 141.875 C0.29943136 136.76761861 -0.27372211 133.72627789 -4 130 C-10.48270313 125.47073716 -16.98576755 122.68395843 -24.5625 120.5625 C-25.54412109 120.2744751 -26.52574219 119.9864502 -27.53710938 119.68969727 C-32.85206222 118.14146124 -38.18735871 116.67012409 -43.52734375 115.2109375 C-59.45492179 110.85617955 -74.3860038 106.74084907 -88 97 C-89.60875 95.8553125 -89.60875 95.8553125 -91.25 94.6875 C-101.19879259 84.96481634 -106.03404001 73.7234985 -106.29321289 59.99194336 C-106.40276172 42.64301477 -102.44507419 29.74905831 -90.90625 16.6171875 C-67.84650109 -5.3239915 -29.33439101 -10.01662132 0 0 Z " fill="#242324" transform="translate(1523,922)"/>
<path d="M0 0 C3.41329127 0.65670466 5.91320148 1.98301518 8.875 3.78125 C9.8451001 4.36680664 10.8152002 4.95236328 11.81469727 5.55566406 C12.86584717 6.19729492 13.91699707 6.83892578 15 7.5 C16.10722412 8.16999023 17.21444824 8.83998047 18.35522461 9.53027344 C21.90759021 11.68011951 25.45398484 13.83970121 29 16 C32.94815126 18.40258135 36.8966742 20.80454997 40.84570312 23.20568848 C41.99550714 23.90510353 43.14508201 24.60489543 44.29443359 25.30505371 C51.23094151 29.53020252 58.18820422 33.71671338 65.18359375 37.84375 C65.87707413 38.25332947 66.5705545 38.66290894 67.28504944 39.0848999 C71.20254348 41.39772696 75.12429573 43.70294403 79.05300331 45.99667454 C80.30354951 46.73957605 81.54587025 47.49666447 82.77594376 48.27299404 C86.44891054 50.58118619 90.08452675 52.50597949 94.07341003 54.2167511 C100.7968204 57.38075358 107.40933178 60.75894933 110.14235306 68.04574966 C111.83825146 76.60792222 111.57801572 85.30431344 111.32426286 93.98674655 C111.23187221 97.80067699 111.24738191 101.61437688 111.24845886 105.42921448 C111.23457626 111.82530503 111.14441213 118.21660106 111.00317383 124.61108398 C110.84061724 131.99390132 110.77954727 139.37197228 110.7766121 146.7564711 C110.77278628 154.64361116 110.70036796 162.52899043 110.60513854 170.41550183 C110.5820779 172.67901524 110.57121809 174.9423195 110.56287575 177.20593071 C110.54600468 180.76422043 110.4826966 184.31884232 110.38383675 187.87576866 C110.34047383 189.79681658 110.34050788 191.71869155 110.34194946 193.64022827 C110.0452583 201.91098755 110.0452583 201.91098755 107.00232506 205.08129692 C104.72497151 206.61886541 102.48688617 207.84047043 100 209 C99.11570312 209.5662207 98.23140625 210.13244141 97.3203125 210.71582031 C96.59585938 211.16538086 95.87140625 211.61494141 95.125 212.078125 C94.29436035 212.59366943 93.4637207 213.10921387 92.60791016 213.64038086 C91.7472998 214.17155518 90.88668945 214.70272949 90 215.25 C89.08138184 215.8179126 88.16276367 216.3858252 87.21630859 216.97094727 C81.04644824 220.77218422 74.83074688 224.48385597 68.5715332 228.13549805 C59.7194115 233.31094757 50.98642687 238.68286282 42.23486328 244.02587891 C32.8906289 249.72833016 23.53669089 255.41454794 14.16943359 261.07910156 C11.29152384 262.82331616 8.42058351 264.5784325 5.55078125 266.3359375 C4.01342199 267.26628822 2.4756964 268.19603403 0.9375 269.125 C-0.07932861 269.75486816 -0.07932861 269.75486816 -1.11669922 270.39746094 C-2.69956171 271.34442997 -4.34555353 272.184518 -6 273 C-9.63512875 271.78829042 -9.86529311 270.98935563 -11.671875 267.73046875 C-12.41691284 266.40499023 -12.41691284 266.40499023 -13.17700195 265.05273438 C-13.69609131 264.10720703 -14.21518066 263.16167969 -14.75 262.1875 C-15.82076819 260.26385154 -16.89237881 258.34067176 -17.96484375 256.41796875 C-18.48288574 255.4851709 -19.00092773 254.55237305 -19.53466797 253.59130859 C-20.77357126 251.40041897 -22.0485987 249.24930885 -23.37890625 247.11328125 C-24.01699219 246.08589844 -24.65507812 245.05851562 -25.3125 244 C-25.86550781 243.13375 -26.41851562 242.2675 -26.98828125 241.375 C-28 239 -28 239 -28.13671875 236.4765625 C-26.37555419 232.63952357 -23.07915939 231.28208624 -19.5 229.375 C-17.92383398 228.49436162 -16.34966299 227.61014454 -14.77734375 226.72265625 C-13.97409668 226.27164551 -13.17084961 225.82063477 -12.34326172 225.35595703 C-8.81988062 223.3171095 -5.44869285 221.06926832 -2.0625 218.8125 C4.94565339 214.19245689 12.14830367 209.97250952 19.4375 205.8125 C28.80797692 200.46465718 38.06948229 194.97867117 47.25 189.3125 C48.88279907 188.3057019 48.88279907 188.3057019 50.54858398 187.27856445 C53.37263351 185.52928151 56.19506648 183.77977622 59 182 C60.02580673 181.47606155 61.05161346 180.95212311 62.10850525 180.41230774 C65.35154057 178.20636505 65.35154057 178.20636505 65.82246399 174.28341675 C65.88540221 172.7626587 65.91531542 171.24031666 65.91918945 169.71826172 C65.94416 168.8851799 65.96913055 168.05209808 65.99485779 167.19377136 C66.06715725 164.43864888 66.09347048 161.68565803 66.11328125 158.9296875 C66.14019057 157.00879288 66.1675563 155.08790461 66.19535828 153.16702271 C66.24484139 149.13690946 66.26792827 145.10754376 66.27661133 141.07714844 C66.29273129 135.92981031 66.40556794 130.78957529 66.54284382 125.64423943 C66.63244643 121.67352258 66.65378762 117.70449247 66.65678978 113.73285294 C66.66935229 111.83726722 66.7064867 109.94166977 66.76934242 108.04708481 C67.36262659 98.07000438 67.36262659 98.07000438 63.54858017 89.24149323 C60.02193413 86.1371688 56.1090109 83.92934894 51.88666344 81.90895462 C49.06604139 80.55003845 46.3900742 78.95267959 43.6875 77.375 C42.54796875 76.73691406 41.4084375 76.09882812 40.234375 75.44140625 C31.09513535 70.2420428 22.22281851 64.56686963 13.28564453 59.03076172 C10.17336129 57.10714959 7.05487694 55.19412091 3.93359375 53.28515625 C2.99265869 52.70789795 2.05172363 52.13063965 1.08227539 51.53588867 C-0.66030499 50.46683156 -2.40448573 49.40037645 -4.15063477 48.3371582 C-9.321069 45.15498663 -14.20955389 41.72992796 -19 38 C-18.38872219 33.99156859 -17.10981288 30.90928199 -15.234375 27.32421875 C-14.39326172 25.71063477 -14.39326172 25.71063477 -13.53515625 24.06445312 C-12.65150391 22.39286133 -12.65150391 22.39286133 -11.75 20.6875 C-11.17636719 19.58470703 -10.60273438 18.48191406 -10.01171875 17.34570312 C-6.89545098 11.40065926 -3.65029101 5.63324985 0 0 Z " fill="#181716" transform="translate(275,874)"/>
<path d="M0 0 C3.01279637 2.79971697 5.06423317 5.51561971 7.05859375 9.10546875 C7.60966797 10.08966797 8.16074219 11.07386719 8.72851562 12.08789062 C9.29248047 13.11076172 9.85644531 14.13363281 10.4375 15.1875 C10.99759766 16.19103516 11.55769531 17.19457031 12.13476562 18.22851562 C13.23862529 20.20824994 14.33690511 22.19110721 15.42919922 24.17724609 C16.44955353 26.01083897 17.49179015 27.83248537 18.55908203 29.63916016 C19.25880127 30.8329126 19.25880127 30.8329126 19.97265625 32.05078125 C20.389104 32.74469971 20.80555176 33.43861816 21.23461914 34.15356445 C22 36 22 36 21 39 C19.40307617 40.26416016 19.40307617 40.26416016 17.29296875 41.5390625 C16.49262207 42.02858398 15.69227539 42.51810547 14.86767578 43.02246094 C13.98321777 43.55129883 13.09875977 44.08013672 12.1875 44.625 C11.26694824 45.18477539 10.34639648 45.74455078 9.39794922 46.32128906 C7.3692987 47.55355605 5.33824223 48.7818683 3.30517578 50.00683594 C-0.16844379 52.1015789 -3.6339302 54.20927348 -7.09765625 56.3203125 C-16.79465085 62.22672235 -26.50140305 68.11654025 -36.25 73.9375 C-41.40004942 77.02272774 -46.52338778 80.14799654 -51.625 83.3125 C-52.28918945 83.72169678 -52.95337891 84.13089355 -53.63769531 84.55249023 C-54.26514648 84.94380127 -54.89259766 85.3351123 -55.5390625 85.73828125 C-56.08771973 86.07899658 -56.63637695 86.41971191 -57.20166016 86.77075195 C-58.09183838 87.37922974 -58.09183838 87.37922974 -59 88 C-59.84547394 88.51832901 -60.69094788 89.03665802 -61.56204224 89.57069397 C-64.85486188 92.85182817 -64.77340621 95.68465946 -64.80566406 100.09814453 C-64.83048859 100.91171921 -64.85531311 101.72529388 -64.88088989 102.56352234 C-64.95387058 105.25350168 -64.98798273 107.94200617 -65.015625 110.6328125 C-65.04440208 112.50886044 -65.0731905 114.38490821 -65.10198975 116.26095581 C-65.15450891 120.19682642 -65.18373765 124.13218775 -65.20117188 128.06835938 C-65.22854281 133.09457627 -65.34850903 138.11397914 -65.49103165 143.13806343 C-65.58455452 147.01607287 -65.61021018 150.89246967 -65.61785126 154.77151108 C-65.63291258 156.62248739 -65.67282426 158.47344478 -65.73877716 160.32330704 C-66.33732993 170.11441854 -66.33732993 170.11441854 -62.53539658 178.74560738 C-58.97967287 181.84186132 -55.04555387 184.06463256 -50.81564522 186.10948372 C-48.30729064 187.33975193 -45.96627684 188.8090697 -43.6015625 190.29296875 C-41.94508845 191.26189306 -40.28619494 192.22669202 -38.625 193.1875 C-36.72350317 194.30000365 -34.82247989 195.41331699 -32.921875 196.52734375 C-31.95056641 197.09565918 -30.97925781 197.66397461 -29.97851562 198.24951172 C-20.60738885 203.75696901 -11.30842405 209.38746978 -2 215 C-1.08181488 215.55349121 -1.08181488 215.55349121 -0.14508057 216.11816406 C3.71656248 218.44649138 7.57627882 220.77797069 11.43377686 223.11315918 C12.67608308 223.8648955 13.91879316 224.61596488 15.16192627 225.36633301 C16.89697588 226.41400552 18.63016659 227.46475467 20.36328125 228.515625 C21.35626221 229.11665039 22.34924316 229.71767578 23.37231445 230.33691406 C25.6770058 231.79557405 27.84879405 233.32595442 30 235 C28.70175096 239.25178529 27.07329485 242.94399824 24.8828125 246.80859375 C24.27566406 247.88560547 23.66851563 248.96261719 23.04296875 250.07226562 C22.41003906 251.18279297 21.77710938 252.29332031 21.125 253.4375 C20.49980469 254.54416016 19.87460937 255.65082031 19.23046875 256.79101562 C16.17005481 262.20335445 13.08984582 267.60441496 10 273 C4.68119584 271.51607031 0.49514484 269.04218236 -4.125 266.125 C-5.73513111 265.12412114 -7.34582876 264.12415324 -8.95703125 263.125 C-10.20347412 262.34962891 -10.20347412 262.34962891 -11.47509766 261.55859375 C-15.56107151 259.03636815 -19.68784229 256.58325689 -23.8125 254.125 C-30.83956625 249.92890807 -37.80634606 245.64502708 -44.75 241.3125 C-50.61863592 237.65605225 -56.50504155 234.08467782 -62.5625 230.75 C-69.68092699 226.8244248 -76.65349515 222.66194788 -83.60861206 218.45593262 C-84.8534212 217.70338717 -86.09910669 216.9522891 -87.34573364 216.20275879 C-89.11870786 215.13582143 -90.88793265 214.06291531 -92.65625 212.98828125 C-93.68556641 212.36477783 -94.71488281 211.74127441 -95.77539062 211.09887695 C-97.37157227 210.05993286 -97.37157227 210.05993286 -99 209 C-99.66793579 208.65226501 -100.33587158 208.30453001 -101.02404785 207.94625759 C-104.51982148 205.86520139 -106.63570541 204.2858089 -107.77101898 200.27862263 C-108.101449 196.76961411 -108.1723071 193.33432891 -108.16210938 189.80957031 C-108.18607027 188.46526143 -108.21329715 187.1210074 -108.24353027 185.77682495 C-108.31402368 182.13583304 -108.33294441 178.49634566 -108.33805656 174.85473728 C-108.34375531 172.576002 -108.36085631 170.2976457 -108.3820343 168.01900482 C-108.4559942 160.05799708 -108.4887235 152.09805865 -108.48242188 144.13671875 C-108.47761942 136.73331637 -108.56194186 129.33458513 -108.68837118 121.9323647 C-108.79326138 115.56249222 -108.83588188 109.19413936 -108.8307786 102.82341075 C-108.82874571 99.02425049 -108.8511023 95.22924053 -108.936203 91.43094635 C-109.41597498 68.44710853 -109.41597498 68.44710853 -105.44886017 62.78683662 C-101.77440016 59.35274795 -97.71693283 57.42225493 -93.01079464 55.7692194 C-89.82619389 54.55096636 -87.15576145 52.75235097 -84.296875 50.90234375 C-82.11526156 49.5796099 -79.93295385 48.25802055 -77.75 46.9375 C-75.93049309 45.83541669 -74.11117545 44.73302134 -72.29185486 43.63063049 C-71.04817643 42.8771014 -69.80441222 42.12371385 -68.56056213 41.37046814 C-64.34257151 38.81568172 -60.12906942 36.25362457 -55.91796875 33.6875 C-42.95569628 25.79207601 -29.9550294 17.96872143 -16.87866211 10.26342773 C-11.20281038 6.91604105 -5.56818044 3.52382434 0 0 Z " fill="#191918" transform="translate(581,874)"/>
<path d="M0 0 C12.54 0 25.08 0 38 0 C38 65.01 38 130.02 38 197 C25.46 197 12.92 197 0 197 C0 131.99 0 66.98 0 0 Z " fill="#232323" transform="translate(1589,921)"/>
</svg>
